<?xml version="1.0"?>
<COLLADA xmlns="http://www.collada.org/2005/11/COLLADASchema" version="1.4.1">
    <asset>
        <contributor>
            <authoring_tool>Supear Mardian SixDaeFour</authoring_tool>
        </contributor>
        <created>2026-03-08T23:01:42.796Z</created>
        <modified>2026-03-08T23:01:42.796Z</modified>
		<unit meter="0.01" name="centimeter" />
        <up_axis>Y_UP</up_axis>
    </asset>
    <library_images>
        <image id="tex_0">
            <init_from>tex_301B5E0.png</init_from>
        </image>
    </library_images>
    <library_effects>
        <effect id="effect0">
            <profile_COMMON>
                <newparam sid="surface0">
                    <surface type="2D">
                        <init_from>tex_0</init_from>
                    </surface>
                </newparam>
                <newparam sid="sampler0">
                    <sampler2D>
                        <source>surface0</source>
                    </sampler2D>
                </newparam>
                <technique sid="COMMON">
                    <blinn>
                        <diffuse>
                            <texture texture="sampler0" texcoord="UVSET0"></texture>
                        </diffuse>
                    </blinn>
                </technique>
            </profile_COMMON>
        </effect>
    </library_effects>
    <library_materials>
        <material id="mat0" name="Mat0">
            <instance_effect url="#effect0"/>
        </material>
    </library_materials>
    <library_geometries>
        <geometry id="meshMesh0_1">
            <mesh>
                <source id="pointsMesh0_1">
                    <float_array id="pointarrayMesh0_1" count="42">-108 1 0 -44 -13 -31 -62 -19 12 -44 16 -31 -62 21 12 -47 1 -64 -97 1 23 55 1 127 41 16 56 50 16 -43 41 -14 56 50 -13 -43 62 1 -92 101 1 1</float_array>
                    <technique_common>
                        <accessor count="14" source="#pointarrayMesh0_1" stride="3">
                            <param name="X" type="float"/>
                            <param name="Y" type="float"/>
                            <param name="Z" type="float"/>
                        </accessor>
                    </technique_common>
                </source>
                <source id="uvsMesh0_1">
                    <float_array id="uvarrayMesh0_1" count="28">0.013671875 0.447265625 0.279296875 0.328125 0.205078125 0.509765625 0.279296875 0.328125 0.205078125 0.509765625 0.267578125 0.189453125 0.060546875 0.548828125 0.6953125 1.0078125 0.640625 0.708984375 0.67578125 0.294921875 0.640625 0.708984375 0.67578125 0.294921875 0.724609375 0.091796875 0.888671875 0.4921875</float_array>
                    <technique_common>
                        <accessor count="14" source="#uvarrayMesh0_1" stride="2">
                            <param name="S" type="float"/>
                            <param name="T" type="float"/>
                        </accessor>
                    </technique_common>
                </source>
                <vertices id="verticesMesh0_1">
                    <input semantic="POSITION" source="#pointsMesh0_1"/>
                </vertices>
                <polylist count="24" material="Material1">
                    <input offset="0" semantic="VERTEX" source="#verticesMesh0_1"/>
                    <input offset="1" semantic="TEXCOORD" source="#uvsMesh0_1" set="0"/>
                    <vcount>3 3 3 3 3 3 3 3 3 3 3 3 3 3 3 3 3 3 3 3 3 3 3 3</vcount>
                    <p>0 0 1 1 2 2 3 3 0 0 4 4 5 5 0 0 3 3 2 2 6 6 0 0 0 0 6 6 4 4 5 5 1 1 0 0 4 4 6 6 7 7 6 6 2 2 7 7 7 7 8 8 4 4 9 9 4 4 8 8 9 9 3 3 4 4 2 2 10 10 7 7 1 1 11 11 2 2 11 11 10 10 2 2 1 1 5 5 12 12 12 12 5 5 3 3 9 9 11 11 12 12 3 3 9 9 12 12 12 12 11 11 1 1 8 8 7 7 10 10 13 13 9 9 8 8 9 9 13 13 11 11 11 11 13 13 10 10 10 10 13 13 8 8</p>
                </polylist>
            </mesh>
        </geometry>
        <geometry id="meshMesh1_1">
            <mesh>
                <source id="pointsMesh1_1">
                    <float_array id="pointarrayMesh1_1" count="27">67 0 -58 67 -3 -28 0 1 -3 67 4 27 53 0 0 67 -3 27 0 0 5 67 4 -28 67 0 57</float_array>
                    <technique_common>
                        <accessor count="9" source="#pointarrayMesh1_1" stride="3">
                            <param name="X" type="float"/>
                            <param name="Y" type="float"/>
                            <param name="Z" type="float"/>
                        </accessor>
                    </technique_common>
                </source>
                <source id="uvsMesh1_1">
                    <float_array id="uvarrayMesh1_1" count="18">0.71875 0.2890625 0.6875 0.439453125 0.998046875 0.65234375 0.62890625 0.716796875 0.7265625 0.595703125 0.62890625 0.716796875 0.9921875 0.6953125 0.6875 0.439453125 0.59765625 0.865234375</float_array>
                    <technique_common>
                        <accessor count="9" source="#uvarrayMesh1_1" stride="2">
                            <param name="S" type="float"/>
                            <param name="T" type="float"/>
                        </accessor>
                    </technique_common>
                </source>
                <vertices id="verticesMesh1_1">
                    <input semantic="POSITION" source="#pointsMesh1_1"/>
                </vertices>
                <polylist count="14" material="Material1">
                    <input offset="0" semantic="VERTEX" source="#verticesMesh1_1"/>
                    <input offset="1" semantic="TEXCOORD" source="#uvsMesh1_1" set="0"/>
                    <vcount>3 3 3 3 3 3 3 3 3 3 3 3 3 3</vcount>
                    <p>0 0 1 1 2 2 2 2 3 3 4 4 4 4 5 5 2 2 2 2 5 5 6 6 2 2 1 1 4 4 2 2 6 6 3 3 4 4 7 7 2 2 2 2 7 7 0 0 6 6 8 8 3 3 3 3 8 8 5 5 3 3 5 5 4 4 4 4 1 1 7 7 6 6 5 5 8 8 1 1 0 0 7 7</p>
                </polylist>
            </mesh>
        </geometry>
    </library_geometries>
    <library_visual_scenes>
        <visual_scene id="VisualSceneNode">
            <node id="node_Node0" name="Node0_scale">
                <scale sid="scale">0.25 0.25 0.25</scale>
                <node id="node_Node1" name="Node1_part">
                    <translate sid="translate">-16 0 0</translate>
                    <rotate sid="rotateZ">0 0 1 90</rotate>
                    <rotate sid="rotateY">0 1 0 90</rotate>
                    <rotate sid="rotateX">1 0 0 0</rotate>
                    <node id="node_Node2" name="Node2_part">
                        <node id="node_Mesh0_1" name="Mesh0">
                            <instance_geometry url="#meshMesh0_1">
                                <bind_material>
                                    <technique_common>
                                        <instance_material symbol="Material1" target="#mat0">
                                            <bind_vertex_input semantic="UVSET0" input_semantic="TEXCOORD" input_set="0"/>
                                        </instance_material>
                                    </technique_common>
                                </bind_material>
                            </instance_geometry>
                        </node>
                        <node id="node_Node3" name="Node3_part">
                            <translate sid="translate">97 0 0</translate>
                            <node id="node_Mesh1_1" name="Mesh1">
                                <instance_geometry url="#meshMesh1_1">
                                    <bind_material>
                                        <technique_common>
                                            <instance_material symbol="Material1" target="#mat0">
                                                <bind_vertex_input semantic="UVSET0" input_semantic="TEXCOORD" input_set="0"/>
                                            </instance_material>
                                        </technique_common>
                                    </bind_material>
                                </instance_geometry>
                            </node>
                        </node>
                    </node>
                </node>
            </node>
        </visual_scene>
    </library_visual_scenes>
    <scene>
        <instance_visual_scene url="#VisualSceneNode"/>
    </scene>
</COLLADA>
